<svg xmlns="http://www.w3.org/2000/svg" viewBox="0 0 266.7 228.66"><title>backward</title><g id="Слой_2" data-name="Слой 2"><g id="Слой_1-2" data-name="Слой 1"><path d="M60.16,134.13c11,3.94,17.84,12.93,25.68,20.68,13.51,13.37,26.83,26.93,40.28,40.36,5.9,5.89,8.33,12.76,5.83,20.85-3.69,11.93-18.72,16.54-28.67,8.93a35.68,35.68,0,0,1-3.51-3.09q-46.51-46.48-93-93c-7.3-7.31-8.8-16.13-4-24.35a24.36,24.36,0,0,1,3.9-4.84Q53.28,53,100,6.31c8.61-8.61,20.91-8.37,28.73.48,5.6,6.35,5.55,17.36-.15,24.29-1,1.2-2.08,2.33-3.18,3.43Q104.21,55.7,83,76.85C76.16,83.67,70,91.33,60.33,94.72l.18.66h2.93q90.88,0,181.76,0c6.07,0,11.59,1.19,15.87,5.74,5.34,5.66,7.12,12.35,4.3,19.68-2.93,7.62-8.81,11.81-17,12.65a45.77,45.77,0,0,1-4.68.12H60.42Z"/></g></g></svg>