<svg xmlns="http://www.w3.org/2000/svg" viewBox="0 0 316.08 315.92"><title>bag</title><g id="Слой_2" data-name="Слой 2"><g id="Слой_1-2" data-name="Слой 1"><path d="M99.15,58.84c.93-7.71,1.24-15.16,2.81-22.34C106.4,16.16,121.6,2.25,142.3.63a162.8,162.8,0,0,1,36,.77c18.89,2.78,33.09,18.22,36.12,37.09,1.07,6.67,1.47,13.44,2.19,20.35,7.35.5,14.72.93,22.07,1.52,11.71,1,23.54,1.48,34.44,6.53,22.57,10.46,37,27.39,39.87,52.59a449.23,449.23,0,0,1,2,82.26c-1.16,16.56-2.78,33.11-5,49.56-4.09,29.82-29.87,55-59.84,59a659.42,659.42,0,0,1-80.62,5.53c-25.66.28-51.29-.23-76.85-2.6-11.18-1-22.47-2-33.41-4.31-27-5.79-49.24-30.32-53.5-57.55A495.32,495.32,0,0,1,.13,163.83c.34-15.58.88-31.29,3.15-46.68,4-26.82,20.48-44,45.75-52.34,9-3,18.88-3.28,28.41-4.4C84.65,59.56,91.95,59.34,99.15,58.84ZM34.3,172.68c-.09,1.13-.21,1.91-.2,2.7a636.11,636.11,0,0,0,4.62,67.27C41,262.13,58.1,276.19,73.38,277.1c18,1.07,35.92,3.16,53.91,4.12a671.72,671.72,0,0,0,117.09-4.42c15.65-1.91,29.74-15.2,32.08-29.93,3.79-23.87,5.19-47.92,5.43-72.06a22.39,22.39,0,0,0-.25-2.42c-6,1-11.8,1.94-17.59,2.88L175.33,189.6c-9.89,1.59-19.73,3.77-29.85,2q-47-8.05-94-16Zm246.27-34.61c-.35-4.64-.54-9.07-1-13.47a32.54,32.54,0,0,0-29.93-29c-16-1.22-31.92-2.38-47.9-3.19A944,944,0,0,0,65.37,95.67c-12.64,1.19-25.19,11.48-28,23.3a87.15,87.15,0,0,0-1.62,13.25c-.49,6.24-.37,6.16,5.93,7.23q49.25,8.35,98.48,16.77c7.27,1.24,14.42,2.46,22,1.18,30.63-5.22,61.34-10,92-15C262.84,141,271.51,139.56,280.57,138.07Zm-98.3-80.73c-.49-4.81-.61-9.47-1.5-14a10.81,10.81,0,0,0-10.17-9c-8.4-.21-16.81-.17-25.21,0-4.36.08-7.38,2.64-9.21,6.45-2.52,5.27-1.67,11-2.44,16.54Z"/></g></g></svg>