<svg xmlns="http://www.w3.org/2000/svg" viewBox="0 0 213.98 214.13"><title>close</title><g id="Слой_2" data-name="Слой 2"><g id="Слой_1-2" data-name="Слой 1"><path d="M81.9,106.56a13.45,13.45,0,0,1-2.06-1.42Q43.18,68.47,6.55,31.77C-2.22,23-.58,9.61,10,3.27c6.61-4,15.65-2.71,21.36,3Q68.21,43,105,79.86c.58.58,1.08,1.26,2.2,2.59A15,15,0,0,1,108.8,80Q145.66,43,182.55,6.15c5-5,10.87-7.36,17.84-5.54,13.75,3.58,18,19.66,8.16,30.13-1.48,1.57-3,3.06-4.58,4.59q-86.19,86.2-172.38,172.41c-5.6,5.61-12,7.84-19.77,5.28C.55,209.3-3.76,194.56,3.75,185.39c1-1.18,2-2.33,3.08-3.41q36.49-36.55,73-73.07a13.66,13.66,0,0,1,2.06-1.42Z"/><path d="M142.39,124.58a20,20,0,0,1,13.36,6.08Q182,156.87,208.2,183.14c8.29,8.35,7.55,20.3-1.49,27.4-6.84,5.37-16.73,4.73-23.42-1.91q-26.65-26.41-53.06-53.07c-9.13-9.25-6.59-23.42,5-28.94C137.44,125.56,140,125.24,142.39,124.58Z"/></g></g></svg>