<svg xmlns="http://www.w3.org/2000/svg" viewBox="0 0 290.53 293.83"><title>directions</title><g id="Слой_2" data-name="Слой 2"><g id="Слой_1-2" data-name="Слой 1"><path d="M156.83,269.16V220.62h3.72c18.75,0,37.5.07,56.25,0,13-.07,22.74-8.64,24.8-21.41,2.17-13.49-8.42-27-22-28-3.94-.28-7.9-.17-11.85-.17q-23.56,0-47.12,0h-3.75V122.59c.94-.08,1.81-.21,2.68-.21,19.26,0,38.51-.14,57.77,0,35.48.3,67.65,28.59,72.58,63.63,5.22,37.1-21.79,74.85-58.69,81.85a76.21,76.21,0,0,1-13.57,1.33c-19.46.14-38.92.06-58.37.06C158.54,269.28,157.84,269.21,156.83,269.16Z"/><path d="M133.57,171.44h-3.39q-27.82,0-55.64,0c-36.26,0-68.83-27.37-73.69-63.25-4-29.7,8-53.23,31.78-70.74A66.59,66.59,0,0,1,73,24.53q29,0,58.07,0c.79,0,1.57.08,2.53.12V73.19h-3.57c-18.75,0-37.5-.06-56.25,0-13.12.06-22.94,8.65-25,21.57-2.12,13.44,8.58,27.2,22.23,27.75,12.65.51,25.33.2,38,.23,8.09,0,16.18,0,24.51,0Z"/><path d="M201,73.22H156.82V24.72h43.89c-1.25-3.59-2.38-6.76-3.45-10a10.5,10.5,0,0,1,2.2-11A10.47,10.47,0,0,1,210.19.35a13.78,13.78,0,0,1,4.12,1.86,494.22,494.22,0,0,0,68.52,36.48c6.31,2.79,9,8,7.15,13.91-1.12,3.66-3.8,5.73-7.14,7.39C265.91,68.42,249,76.84,232.2,85.55c-6.09,3.16-11.78,7.11-17.64,10.72-5.12,3.15-9.76,3.12-13.82-.12s-5.11-7.88-3.15-13.45C198.67,79.68,199.77,76.66,201,73.22Z"/><path d="M89.47,220.59h44.11v48.57H89.77c1.15,3.29,2.19,6.21,3.19,9.15,1.79,5.27.67,9.83-3.13,12.93-4,3.23-8.81,3.51-13.53.46A484.48,484.48,0,0,0,7.24,255c-4.61-2-7.3-5.5-7.24-10.59S2.75,236,7.23,234.05a494.17,494.17,0,0,0,69.34-36.88c4.63-3,9.31-2.64,13.26.56,3.73,3,5,7.65,3.29,12.63C92,213.61,90.82,216.82,89.47,220.59Z"/></g></g></svg>