<svg xmlns="http://www.w3.org/2000/svg" viewBox="0 0 166.98 231.59"><title>fire</title><g id="Слой_2" data-name="Слой 2"><g id="Слой_1-2" data-name="Слой 1"><path d="M92.52,231.59c19-4.79,31.43-17.88,33.26-37.27a67.75,67.75,0,0,0-8.34-39.94c-7.92-14.22-18-26.79-28.92-38.72a6,6,0,0,0-.67-.52l-3.49,5.75c-6.49,10.68-14.25,20.38-22.48,29.76a180.49,180.49,0,0,0-13.67,17.7c-7.06,10.42-8.32,22-6.12,34.27,1.3,7.26,3.61,14,9.28,18.88,3.09,2.66,6.84,4.58,10.38,6.69a25.69,25.69,0,0,0,4.17,1.62l-.17.56c-5.11-1.48-10.32-2.68-15.31-4.5a77.33,77.33,0,0,1-32.75-22.29A69.17,69.17,0,0,1,1.41,168.78,98.18,98.18,0,0,1,2.29,131C5.5,117.16,12.41,105.14,21.81,94.7c6.55-7.28,13.8-13.93,20.9-20.7C56.17,61.16,65.8,46,70.6,28A67.6,67.6,0,0,0,72.9,3.54c-.08-.83-.11-1.66-.14-2.49A8,8,0,0,1,72.91,0c3.88,2.92,7.69,5.58,11.28,8.51,21.8,17.75,40.93,38,56.51,61.44,9.17,13.82,17,28.39,21.76,44.31,1.94,6.44,2.5,13.32,3.51,20a88,88,0,0,1-2.19,36.78,82.49,82.49,0,0,1-21.67,37.33,80,80,0,0,1-39.6,21.56C99.22,230.68,95.85,231,92.52,231.59Z"/></g></g></svg>