<svg xmlns="http://www.w3.org/2000/svg" viewBox="0 0 266.7 228.61"><title>forward</title><g id="Слой_2" data-name="Слой 2"><g id="Слой_1-2" data-name="Слой 1"><path d="M205.82,133.38h-3.36q-90.48,0-181,0c-6,0-11.6-1.23-15.87-5.79C.39,122-1.53,115.45,1.31,108.2,4.2,100.8,10,96.7,17.9,95.79a43.6,43.6,0,0,1,4.94-.16H206.65l.19-.42a29.55,29.55,0,0,1-3-1.68c-4.34-3.13-9.09-5.85-12.87-9.56-16.91-16.6-33.51-33.51-50.27-50.26-5.95-5.95-8.51-12.84-6-21.05C138.47.74,153.48-3.89,163.44,3.7A35,35,0,0,1,167,6.78q46.5,46.48,93,93c7.29,7.3,8.78,16.15,4,24.35a24.48,24.48,0,0,1-3.9,4.84q-46.63,46.71-93.33,93.36c-8.62,8.61-20.94,8.36-28.73-.5-5.6-6.37-5.54-17.37.16-24.29,1-1.2,2.08-2.33,3.19-3.43q24.57-24.58,49.13-49.17A46.15,46.15,0,0,1,205,134.54a9,9,0,0,0,1-.6Z"/></g></g></svg>