<svg xmlns="http://www.w3.org/2000/svg" viewBox="0 0 298.35 298.35"><title>gear</title><g id="Слой_2" data-name="Слой 2"><g id="Слой_1-2" data-name="Слой 1"><path d="M58.42,265.82c-1.9-.91-4.52-1.55-6.27-3.14q-8.54-7.76-16.52-16.13c-3.27-3.42-3.42-7.71-1.57-11.93,1.66-3.8,3.56-7.49,5.43-11.19,4.26-8.44,6-17.13,3-26.41-3.67-11.2-11-18.68-22.24-22.28-4.24-1.36-8.5-2.66-12.66-4.22-5-1.87-7.54-5.58-7.55-11,0-6.79,0-13.58,0-20.37,0-5.44,2.62-9.07,7.54-11,4.34-1.67,8.76-3.13,13.21-4.49,19.07-5.8,29.18-29.12,19.55-47.16-2-3.84-4-7.71-5.92-11.63C31.76,59.45,32.61,54.55,37,50.24s8.43-8.49,12.6-12.77c4.7-4.83,10-5.75,16-2.64,3.23,1.68,6.49,3.31,9.71,5a33.92,33.92,0,0,0,48.48-19.31c1.38-4.12,2.64-8.29,4.07-12.39,1.84-5.28,5.6-8.06,11.23-8.09,7.09,0,14.18-.09,21.27,0,4.67.09,7.8,2.76,9.47,6.92s2.94,8.18,4.25,12.33c4.28,13.57,13.55,21.51,27.35,24.25a29.42,29.42,0,0,0,18.66-2.5c4.48-2.12,8.84-4.49,13.31-6.65,5.46-2.64,10.37-1.88,14.68,2.54,4.53,4.64,9.16,9.18,13.69,13.82,4.11,4.21,4.68,9,2.07,14.22-1.5,3-2.84,6.07-4.59,8.9-10.78,17.55-3.45,44.12,20.56,50.37,3.61.94,7.16,2.19,10.67,3.48,5.24,1.92,7.9,5.72,7.87,11.37,0,6.59-.06,13.18,0,19.77.05,5.67-2.67,9.47-7.81,11.46-4.62,1.79-9.33,3.34-14,4.88-19.12,6.26-27.16,29.4-18.5,46.44,2,3.88,4,7.72,5.93,11.63,2.55,5.23,1.86,10-2.23,14.23-4.74,4.86-9.46,9.74-14.31,14.49-3.64,3.56-8,4.24-12.63,2.22s-9-4.15-13.41-6.42c-18.11-9.32-40.7,1-46.22,19.29-1.25,4.16-2.55,8.32-4.07,12.39-2.46,6.56-5.66,8.74-12.59,8.79-6.28.05-12.57-.06-18.85,0-5.8.08-9.66-2.68-11.68-7.95-1.74-4.53-3.26-9.14-4.78-13.76-6.54-19.88-30.34-27.51-47.43-18.2-3.82,2.08-7.74,4-11.69,5.8A40.13,40.13,0,0,1,58.42,265.82ZM149.19,64.76A84.58,84.58,0,0,0,64.78,149c-.07,46.38,38,84.54,84.22,84.5a84.56,84.56,0,0,0,84.56-84.75C233.41,102.55,195.44,64.72,149.19,64.76Z"/></g></g></svg>