<svg xmlns="http://www.w3.org/2000/svg" viewBox="0 0 259.57 259.76"><title>good</title><g id="Слой_2" data-name="Слой 2"><g id="Слой_1-2" data-name="Слой 1"><path d="M157.87,91.07h3.71c15.81,0,31.63-.23,47.44.11a51.22,51.22,0,0,1,50.34,50.66c.28,18.14.31,36.29,0,54.43a64.35,64.35,0,0,1-64.23,63.39c-60.52.17-121,.06-181.56,0-8,0-13.51-5.32-13.52-13.26q-.07-71,0-142c0-8,5.29-13.27,13.42-13.32,16.32-.09,32.64,0,49,0h4c.59-3.85,1.21-7.6,1.75-11.36,2.7-18.95,5.34-37.91,8.07-56.85C78.05,10.58,87.12,1.55,99.53.42c11.7-1.07,23.25-.32,34.13,5a52,52,0,0,1,28.51,53.77q-2.17,15-4.29,30.08A14.76,14.76,0,0,0,157.87,91.07ZM102.08,26.38c-.12.61-.25,1.19-.33,1.77-2.59,18-5.22,36.08-7.75,54.12-1.17,8.32-3,16.65-3.07,25-.32,40.94-.14,81.89-.14,122.84v3.43c1.07.07,1.85.16,2.63.16,33.65,0,67.3.11,100.95,0,22.15-.09,39-17,39.18-39.16.16-16.92.1-33.85,0-50.78a30.68,30.68,0,0,0-1.41-8.95C228.55,123.6,218.72,117,206,116.93c-20.88,0-41.76,0-62.64,0-8.84,0-14.67-6.76-13.44-15.3q3.19-22.1,6.39-44.19c1.16-8-.21-15.35-5.42-21.72C123.33,26.48,113.16,25.29,102.08,26.38Zm-76,90.71V233.44H64.58V117.09Z"/></g></g></svg>