<svg xmlns="http://www.w3.org/2000/svg" viewBox="0 0 233.63 311.45"><title>huglass</title><g id="Слой_2" data-name="Слой 2"><g id="Слой_1-2" data-name="Слой 1"><path d="M207.6,285.45c4.5,0,8.64-.11,12.77,0,9.74.3,15.88,9.42,12.16,18-2.07,4.8-5.87,7.34-11,7.89a23.12,23.12,0,0,1-2.43,0H14.43c-8,0-13.56-4.52-14.35-11.53-.87-7.76,5-14.23,13.28-14.45,4-.1,8.09,0,12.5,0,.06-1.26.15-2.33.15-3.39,0-12.87,0-25.75,0-38.62.1-22.65,8.76-41.49,25.5-56.67q9.91-9,19.9-17.89c8.82-7.9,8.84-18.38,0-26.3C63.95,135.8,56.24,129.2,49,122.17,34.37,108.08,26.61,90.79,26.14,70.48,25.82,56.91,26,43.32,26,29.74c0-1.09,0-2.19,0-3.74-4.39,0-8.5.08-12.62,0C5.7,25.79.08,20.32,0,13.09A13,13,0,0,1,12.27,0c.71,0,1.42,0,2.13,0H219.34c6.65,0,11.43,3,13.44,8.43,3.17,8.55-2.9,17.21-12.37,17.54-4.13.14-8.27,0-12.81,0,0,1.38,0,2.47,0,3.55q0,19,0,38c0,22.77-8.62,41.74-25.39,57-6.74,6.15-13.55,12.22-20.34,18.3-8.38,7.5-8.4,18.1,0,25.64,7.45,6.72,15.05,13.28,22.31,20.2,15.09,14.39,23,32.1,23.38,53,.23,13.38.07,26.76.08,40.14C207.6,282.94,207.6,284,207.6,285.45ZM65,285.25H168.51c.07-.65.16-1.14.16-1.62,0-13.78.07-27.56-.13-41.33A30.57,30.57,0,0,0,160,221.09c-11.95-12.4-24.19-24.52-36.42-36.63a9.25,9.25,0,0,0-13.41,0c-12.16,12-24.31,24.11-36.22,36.41a31.17,31.17,0,0,0-8.82,21.73c-.19,12-.09,23.91-.12,35.86C65,280.65,65,282.85,65,285.25Z"/></g></g></svg>