<svg xmlns="http://www.w3.org/2000/svg" viewBox="0 0 303 312.29"><title>infinity</title><g id="Слой_2" data-name="Слой 2"><g id="Слой_1-2" data-name="Слой 1"><path d="M47.89,272.65c-5.31,5.32-10.37,10.71-15.81,15.69a13.67,13.67,0,0,1-7.1,3.41c-5,.59-9-3.37-9.2-8.39-.15-3.24-.06-6.49-.06-9.73q0-32.84,0-65.68c0-7.73,3.33-11,11.15-11,24.33,0,48.65,0,73,0,4.58,0,8.25,1.31,10.11,5.71s.1,8-3.14,11.17c-5,4.88-9.91,9.85-15,15a87.27,87.27,0,0,0,25.05,14.87c52.74,20.32,109.77-8.17,125.3-62.53,4.09-14.33,16.16-23.66,30.32-23.45A30.86,30.86,0,0,1,302,180.92a29.12,29.12,0,0,1-.21,15.91c-15.58,52.78-49,89.45-101.15,106.88-50.14,16.75-97.52,8.7-140.88-21.75C55.78,279.17,52.1,276,47.89,272.65Z"/><path d="M255.26,39.52c5.16-5.17,10.35-10.29,15.44-15.51,3.12-3.21,6.68-4.65,11-2.88s5.64,5.33,5.63,9.81c-.07,24.63,0,49.26,0,73.9,0,7.11-3.51,10.56-10.69,10.56-24.53,0-49.06,0-73.59,0-4.47,0-8-1.37-9.92-5.56-1.76-3.8-.72-7.43,3-11.18,5-5,10-10,15.17-15.13-12.73-10.34-26.83-17.11-42.74-19.84-49-8.42-94,19.93-107.71,67.68-4.06,14.16-16,23.41-30.13,23.32A30.89,30.89,0,0,1,1,131.57a29.87,29.87,0,0,1,.26-16.5C15.49,66.7,45.37,31.54,92,12.46c50.39-20.63,99.32-15.39,145.4,13.86C243.5,30.2,249.09,34.94,255.26,39.52Z"/></g></g></svg>