<?xml version="1.0" encoding="utf-8"?>
<!-- Generator: Adobe Illustrator 22.1.0, SVG Export Plug-In . SVG Version: 6.00 Build 0)  -->
<svg version="1.1" id="Слой_1" xmlns="http://www.w3.org/2000/svg" xmlns:xlink="http://www.w3.org/1999/xlink" x="0px" y="0px"
	 viewBox="0 0 841.9 595.3" style="enable-background:new 0 0 841.9 595.3;" xml:space="preserve">
<g>
	<polygon points="392.4,245 392.4,257 395.5,257 395.5,240.1 392.5,240.1 383.5,252.1 383.5,240.1 380.4,240.1 380.4,257 383.3,257 
			"/>
	<polygon points="403.3,249.7 412,249.7 412,257 415.2,257 415.2,240.1 412,240.1 412,247.1 403.3,247.1 403.3,240.1 400.2,240.1 
		400.2,257 403.3,257 	"/>
	<path d="M423,256.1c1.4,0.7,2.9,1.1,4.6,1.1c1.4,0,2.6-0.2,3.8-0.7c1.1-0.5,2.1-1.2,2.9-2.1l-2-1.9c-1.2,1.3-2.7,2-4.5,2
		c-1.2,0-2.2-0.3-3.1-0.8s-1.6-1.2-2.1-2.1c-0.5-0.9-0.8-1.9-0.8-3.1c0-1.1,0.3-2.2,0.8-3.1c0.5-0.9,1.2-1.6,2.1-2.1s2-0.8,3.1-0.8
		c1.8,0,3.3,0.7,4.5,2l2-1.9c-0.8-0.9-1.7-1.6-2.9-2.1c-1.1-0.5-2.4-0.7-3.8-0.7c-1.7,0-3.2,0.4-4.6,1.1c-1.4,0.7-2.5,1.8-3.2,3.1
		c-0.8,1.3-1.2,2.8-1.2,4.5c0,1.7,0.4,3.1,1.2,4.5C420.6,254.3,421.6,255.3,423,256.1z"/>
	<polygon points="440.6,257 443.7,257 443.7,242.8 449.3,242.8 449.3,240.1 435,240.1 435,242.8 440.6,242.8 	"/>
	<polygon points="463.9,245 463.9,257 467,257 467,240.1 464.1,240.1 455.1,252.1 455.1,240.1 452,240.1 452,257 454.9,257 	"/>
	<path d="M475.3,257h3.1v-14.2h5.6v-2.5l6.6,12.4l-0.3,0.4c-0.7,1-1.5,1.6-2.5,1.6c-0.4,0-1-0.1-1.6-0.3l-0.8,2.5
		c0.8,0.4,1.6,0.5,2.5,0.5c1,0,2-0.3,2.9-0.9c0.9-0.6,1.7-1.5,2.3-2.7l7.3-13.6h-3.1l-5.1,9.9l-5-9.9H484h-0.1h-14.2v2.6h5.6V257z"
		/>
	<polygon points="506.2,257 509.4,257 509.4,242.8 514.9,242.8 514.9,240.1 500.7,240.1 500.7,242.8 506.2,242.8 	"/>
	<path d="M387.9,284.8v1.8h2.9v-1.8c2.8-0.1,5-0.8,6.6-2.1c1.5-1.3,2.3-3,2.3-5.2c0-2.2-0.8-4-2.3-5.2s-3.7-2-6.6-2.1v-1.7h-2.9v1.7
		c-2.8,0.1-5,0.9-6.6,2.1c-1.5,1.3-2.3,3-2.3,5.2c0,2.2,0.8,4,2.3,5.2C382.8,283.9,385,284.6,387.9,284.8z M390.8,272.5
		c1.9,0.1,3.4,0.6,4.4,1.4c1,0.8,1.5,2,1.5,3.4s-0.5,2.6-1.5,3.5c-1,0.8-2.5,1.3-4.4,1.5V272.5z M387.9,272.5v9.8
		c-1.9-0.2-3.3-0.7-4.3-1.5c-1-0.8-1.5-2-1.5-3.4C382,274.4,384,272.8,387.9,272.5z"/>
	<polygon points="418,285.9 418,269 415.1,269 406.1,281 406.1,269 403,269 403,285.9 405.9,285.9 414.9,273.9 414.9,285.9 	"/>
	<polygon points="425.9,269 422.7,269 422.7,285.9 425.9,285.9 425.9,278.6 434.6,278.6 434.6,285.9 437.7,285.9 437.7,269 
		434.6,269 434.6,276 425.9,276 	"/>
	<path d="M440.3,285.9h3.2l1.7-3.9h8.4l1.7,3.9h3.3l-7.6-16.9h-3.1L440.3,285.9z M452.6,279.5h-6.3l3.2-7.4L452.6,279.5z"/>
	<polygon points="476.1,285.9 476.1,269 473,269 473,276 464.3,276 464.3,269 461.1,269 461.1,285.9 464.3,285.9 464.3,278.6 
		473,278.6 473,285.9 	"/>
	<path d="M492.4,285.4c1.1-0.5,2.1-1.2,2.9-2.1l-2-1.9c-1.2,1.3-2.7,2-4.5,2c-1.2,0-2.2-0.3-3.1-0.8c-0.9-0.5-1.6-1.2-2.1-2.1
		c-0.5-0.9-0.8-1.9-0.8-3.1c0-1.1,0.3-2.2,0.8-3.1c0.5-0.9,1.2-1.6,2.1-2.1s2-0.8,3.1-0.8c1.8,0,3.3,0.7,4.5,2l2-1.9
		c-0.8-0.9-1.7-1.6-2.9-2.1c-1.1-0.5-2.4-0.7-3.8-0.7c-1.7,0-3.2,0.4-4.6,1.1c-1.4,0.7-2.5,1.8-3.2,3.1c-0.8,1.3-1.2,2.8-1.2,4.5
		c0,1.7,0.4,3.1,1.2,4.5c0.8,1.3,1.9,2.3,3.2,3.1c1.4,0.7,2.9,1.1,4.6,1.1C490,286.1,491.2,285.9,492.4,285.4z"/>
	<path d="M513.5,281.9c0.8-1.3,1.2-2.8,1.2-4.5c0-1.7-0.4-3.1-1.2-4.5c-0.8-1.3-1.9-2.3-3.3-3.1c-1.4-0.7-2.9-1.1-4.6-1.1
		c-1.7,0-3.3,0.4-4.6,1.1s-2.5,1.8-3.3,3.1s-1.2,2.8-1.2,4.4c0,1.6,0.4,3.1,1.2,4.4c0.8,1.3,1.9,2.4,3.3,3.1
		c1.4,0.7,2.9,1.1,4.6,1.1c1.7,0,3.3-0.4,4.6-1.1C511.6,284.2,512.7,283.2,513.5,281.9z M508.7,282.6c-0.9,0.5-1.9,0.8-3,0.8
		c-1.1,0-2.1-0.3-3-0.8c-0.9-0.5-1.6-1.2-2.1-2.1c-0.5-0.9-0.8-1.9-0.8-3c0-1.1,0.3-2.1,0.8-3c0.5-0.9,1.2-1.6,2.1-2.1
		c0.9-0.5,1.9-0.8,3-0.8c1.1,0,2.1,0.3,3,0.8c0.9,0.5,1.6,1.2,2.1,2.1c0.5,0.9,0.8,1.9,0.8,3c0,1.1-0.3,2.1-0.8,3
		C510.3,281.4,509.6,282.1,508.7,282.6z"/>
	<path d="M530.9,284.6c1.1-0.8,1.6-2,1.6-3.4c0-1-0.3-1.9-0.8-2.6c-0.6-0.7-1.4-1.2-2.5-1.5c0.8-0.3,1.4-0.8,1.8-1.5
		c0.4-0.6,0.6-1.4,0.6-2.3c0-1.4-0.5-2.4-1.6-3.2s-2.5-1.1-4.4-1.1h-7.5v16.9h8C528.2,285.9,529.8,285.4,530.9,284.6z M521.3,271.4
		h4.2c1,0,1.8,0.2,2.3,0.6c0.5,0.4,0.8,1,0.8,1.8c0,0.8-0.3,1.4-0.8,1.8c-0.5,0.4-1.3,0.6-2.3,0.6h-4.2V271.4z M521.3,283.5v-5h4.8
		c2.2,0,3.3,0.8,3.3,2.5c0,1.7-1.1,2.5-3.3,2.5H521.3z"/>
	<path d="M539.3,285c1.4,0.7,2.9,1.1,4.6,1.1c1.7,0,3.3-0.4,4.6-1.1c1.4-0.7,2.5-1.8,3.3-3.1c0.8-1.3,1.2-2.8,1.2-4.5
		c0-1.7-0.4-3.1-1.2-4.5c-0.8-1.3-1.9-2.3-3.3-3.1c-1.4-0.7-2.9-1.1-4.6-1.1c-1.7,0-3.3,0.4-4.6,1.1s-2.5,1.8-3.3,3.1
		c-0.8,1.3-1.2,2.8-1.2,4.4c0,1.6,0.4,3.1,1.2,4.4C536.8,283.2,537.9,284.2,539.3,285z M538.8,274.4c0.5-0.9,1.2-1.6,2.1-2.1
		c0.9-0.5,1.9-0.8,3-0.8c1.1,0,2.1,0.3,3,0.8c0.9,0.5,1.6,1.2,2.1,2.1c0.5,0.9,0.8,1.9,0.8,3c0,1.1-0.3,2.1-0.8,3
		c-0.5,0.9-1.2,1.6-2.1,2.1c-0.9,0.5-1.9,0.8-3,0.8c-1.1,0-2.1-0.3-3-0.8c-0.9-0.5-1.6-1.2-2.1-2.1c-0.5-0.9-0.8-1.9-0.8-3
		C538,276.3,538.3,275.3,538.8,274.4z"/>
	<rect x="555.5" y="277.9" width="6.6" height="2.5"/>
	<polygon points="395.5,314.7 395.5,297.9 392.5,297.9 383.5,309.9 383.5,297.9 380.4,297.9 380.4,314.7 383.3,314.7 392.4,302.8 
		392.4,314.7 	"/>
	<polygon points="403.3,307.5 412,307.5 412,314.7 415.2,314.7 415.2,297.9 412,297.9 412,304.9 403.3,304.9 403.3,297.9 
		400.2,297.9 400.2,314.7 403.3,314.7 	"/>
	<path d="M432.8,304.5c0.4-0.6,0.6-1.4,0.6-2.3c0-1.4-0.5-2.4-1.6-3.2c-1.1-0.8-2.5-1.1-4.4-1.1h-7.5v16.9h8c2.1,0,3.7-0.4,4.7-1.2
		c1.1-0.8,1.6-2,1.6-3.4c0-1-0.3-1.9-0.8-2.6c-0.6-0.7-1.4-1.2-2.5-1.5C431.8,305.6,432.4,305.2,432.8,304.5z M423,300.3h4.2
		c1,0,1.8,0.2,2.3,0.6c0.5,0.4,0.8,1,0.8,1.8c0,0.8-0.3,1.4-0.8,1.8c-0.5,0.4-1.3,0.6-2.3,0.6H423V300.3z M431.1,309.8
		c0,1.7-1.1,2.5-3.3,2.5H423v-5h4.8C430,307.4,431.1,308.2,431.1,309.8z"/>
	<polygon points="450.1,300.5 450.1,297.9 437.8,297.9 437.8,314.7 450.5,314.7 450.5,312.1 441,312.1 441,307.5 449.1,307.5 
		449.1,304.9 441,304.9 441,300.5 	"/>
	<path d="M458.7,301.2c0.9-0.5,2-0.8,3.1-0.8c1.8,0,3.3,0.7,4.5,2l2-1.9c-0.8-0.9-1.8-1.6-2.9-2.1c-1.1-0.5-2.4-0.7-3.8-0.7
		c-1.7,0-3.2,0.4-4.6,1.1c-1.4,0.7-2.5,1.8-3.2,3.1c-0.8,1.3-1.2,2.8-1.2,4.5s0.4,3.1,1.2,4.5c0.8,1.3,1.9,2.3,3.2,3.1
		c1.4,0.7,2.9,1.1,4.6,1.1c1.4,0,2.6-0.2,3.8-0.7c1.1-0.5,2.1-1.2,2.9-2.1l-2-1.9c-1.2,1.3-2.7,2-4.5,2c-1.2,0-2.2-0.3-3.1-0.8
		c-0.9-0.5-1.6-1.2-2.1-2.1c-0.5-0.9-0.8-1.9-0.8-3.1c0-1.1,0.3-2.2,0.8-3.1C457.1,302.4,457.8,301.7,458.7,301.2z"/>
	<polygon points="469,300.5 474.6,300.5 474.6,314.7 477.7,314.7 477.7,300.5 483.3,300.5 483.3,297.9 469,297.9 	"/>
	<polygon points="501,314.7 501,297.9 498.1,297.9 489.1,309.9 489.1,297.9 486,297.9 486,314.7 488.9,314.7 498,302.8 498,314.7 	
		"/>
	<polygon points="523,318.5 523,312.1 520.5,312.1 520.5,297.9 517.4,297.9 517.4,312.1 508.9,312.1 508.9,297.9 505.8,297.9 
		505.8,314.7 520.1,314.7 520.1,318.5 	"/>
	<polygon points="540.9,314.7 540.9,297.9 538,297.9 528.9,309.9 528.9,297.9 525.9,297.9 525.9,314.7 528.8,314.7 537.8,302.8 
		537.8,314.7 	"/>
	<path d="M558.1,298.8c-1.4-0.7-2.9-1.1-4.6-1.1s-3.3,0.4-4.6,1.1c-1.4,0.7-2.5,1.8-3.3,3.1c-0.8,1.3-1.2,2.8-1.2,4.4
		c0,1.6,0.4,3.1,1.2,4.4c0.8,1.3,1.9,2.4,3.3,3.1c1.4,0.7,2.9,1.1,4.6,1.1s3.3-0.4,4.6-1.1c1.4-0.7,2.5-1.8,3.3-3.1
		c0.8-1.3,1.2-2.8,1.2-4.5s-0.4-3.1-1.2-4.5C560.5,300.6,559.5,299.5,558.1,298.8z M558.6,309.4c-0.5,0.9-1.2,1.6-2.1,2.1
		c-0.9,0.5-1.9,0.8-3,0.8s-2.1-0.3-3-0.8c-0.9-0.5-1.6-1.2-2.1-2.1c-0.5-0.9-0.8-1.9-0.8-3s0.3-2.1,0.8-3c0.5-0.9,1.2-1.6,2.1-2.1
		c0.9-0.5,1.9-0.8,3-0.8s2.1,0.3,3,0.8c0.9,0.5,1.6,1.2,2.1,2.1c0.5,0.9,0.8,1.9,0.8,3S559.1,308.5,558.6,309.4z"/>
	<polygon points="577.8,304.9 569.1,304.9 569.1,297.9 566,297.9 566,314.7 569.1,314.7 569.1,307.5 577.8,307.5 577.8,314.7 
		580.9,314.7 580.9,297.9 577.8,297.9 	"/>
	<polygon points="597.5,304.9 588.8,304.9 588.8,297.9 585.7,297.9 585.7,314.7 588.8,314.7 588.8,307.5 597.5,307.5 597.5,314.7 
		600.6,314.7 600.6,297.9 597.5,297.9 	"/>
	<rect x="621.8" y="297.9" width="3.1" height="16.9"/>
	<path d="M613.1,303.6h-4.7v-5.7h-3.1v16.9h7.2c2.2,0,3.8-0.5,5-1.5c1.2-1,1.8-2.4,1.8-4.3c0-1.8-0.5-3.1-1.6-4
		C616.7,304.1,615.2,303.6,613.1,303.6z M615.3,311.5c-0.7,0.6-1.6,0.8-2.8,0.8h-4V306h4c2.5,0,3.8,1,3.8,3.1
		C616.3,310.1,616,310.9,615.3,311.5z"/>
	<polygon points="637.6,306 643.2,297.9 639.6,297.9 635.6,303.5 631.6,297.9 628,297.9 633.7,306.1 627.6,314.7 631.2,314.7 
		635.6,308.6 640,314.7 643.7,314.7 	"/>
	<polygon points="378.4,329.4 383.9,329.4 383.9,343.6 387,343.6 387,329.4 392.6,329.4 392.6,326.8 378.4,326.8 	"/>
	<polygon points="398.4,336.4 406.6,336.4 406.6,333.8 398.4,333.8 398.4,329.4 407.6,329.4 407.6,326.8 395.3,326.8 395.3,343.6 
		408,343.6 408,341 398.4,341 	"/>
	<polygon points="424.8,326.8 421.1,326.8 417.2,332.4 413.2,326.8 409.6,326.8 415.3,335 409.2,343.6 412.8,343.6 417.2,337.5 
		421.6,343.6 425.3,343.6 419.1,334.9 	"/>
	<polygon points="439.2,333.7 430.5,333.7 430.5,326.8 427.4,326.8 427.4,343.6 430.5,343.6 430.5,336.4 439.2,336.4 439.2,343.6 
		442.3,343.6 442.3,326.8 439.2,326.8 	"/>
	<path d="M459.5,327.7c-1.4-0.7-2.9-1.1-4.6-1.1c-1.7,0-3.3,0.4-4.6,1.1c-1.4,0.7-2.5,1.8-3.3,3.1c-0.8,1.3-1.2,2.8-1.2,4.4
		c0,1.6,0.4,3.1,1.2,4.4c0.8,1.3,1.9,2.4,3.3,3.1c1.4,0.7,2.9,1.1,4.6,1.1c1.7,0,3.3-0.4,4.6-1.1c1.4-0.7,2.5-1.8,3.3-3.1
		c0.8-1.3,1.2-2.8,1.2-4.5c0-1.7-0.4-3.1-1.2-4.5C462,329.4,460.9,328.4,459.5,327.7z M460,338.3c-0.5,0.9-1.2,1.6-2.1,2.1
		c-0.9,0.5-1.9,0.8-3,0.8c-1.1,0-2.1-0.3-3-0.8c-0.9-0.5-1.6-1.2-2.1-2.1c-0.5-0.9-0.8-1.9-0.8-3c0-1.1,0.3-2.1,0.8-3
		c0.5-0.9,1.2-1.6,2.1-2.1c0.9-0.5,1.9-0.8,3-0.8c1.1,0,2.1,0.3,3,0.8c0.9,0.5,1.6,1.2,2.1,2.1c0.5,0.9,0.8,1.9,0.8,3
		C460.8,336.3,460.5,337.3,460,338.3z"/>
	<path d="M468.7,333.8c-0.1,2.5-0.3,4.3-0.8,5.5c-0.4,1.2-1.1,1.7-2.1,1.7c-0.3,0-0.5,0-0.7-0.1l-0.2,2.7c0.7,0.2,1.3,0.2,1.7,0.2
		c1.2,0,2.1-0.4,2.8-1.1c0.7-0.8,1.2-1.9,1.5-3.3c0.3-1.5,0.5-3.4,0.6-5.7l0.1-4.2h6.6v14.2h3.1v-16.9h-12.4L468.7,333.8z"/>
	<path d="M498.5,327.7c-1.4-0.7-2.9-1.1-4.6-1.1c-1.7,0-3.3,0.4-4.6,1.1c-1.4,0.7-2.5,1.8-3.3,3.1c-0.8,1.3-1.2,2.8-1.2,4.4
		c0,1.6,0.4,3.1,1.2,4.4c0.8,1.3,1.9,2.4,3.3,3.1c1.4,0.7,2.9,1.1,4.6,1.1c1.7,0,3.3-0.4,4.6-1.1c1.4-0.7,2.5-1.8,3.3-3.1
		c0.8-1.3,1.2-2.8,1.2-4.5c0-1.7-0.4-3.1-1.2-4.5C501,329.4,499.9,328.4,498.5,327.7z M499,338.3c-0.5,0.9-1.2,1.6-2.1,2.1
		c-0.9,0.5-1.9,0.8-3,0.8c-1.1,0-2.1-0.3-3-0.8c-0.9-0.5-1.6-1.2-2.1-2.1c-0.5-0.9-0.8-1.9-0.8-3c0-1.1,0.3-2.1,0.8-3
		c0.5-0.9,1.2-1.6,2.1-2.1c0.9-0.5,1.9-0.8,3-0.8c1.1,0,2.1,0.3,3,0.8c0.9,0.5,1.6,1.2,2.1,2.1c0.5,0.9,0.8,1.9,0.8,3
		C499.8,336.3,499.5,337.3,499,338.3z"/>
	<polygon points="506.4,343.6 509.5,343.6 509.5,329.4 517.8,329.4 517.8,326.8 506.4,326.8 	"/>
	<polygon points="523.6,338.7 523.6,326.8 520.5,326.8 520.5,343.6 523.4,343.6 532.5,331.7 532.5,343.6 535.5,343.6 535.5,326.8 
		532.6,326.8 	"/>
	<path d="M547.8,325.7c1.4,0,2.5-0.3,3.3-0.9c0.7-0.6,1.1-1.5,1.1-2.6H550c0,0.6-0.2,1.1-0.6,1.4c-0.4,0.3-0.9,0.5-1.6,0.5
		c-0.7,0-1.2-0.2-1.6-0.5c-0.4-0.3-0.6-0.8-0.6-1.4h-2.2c0,1.1,0.4,2,1.1,2.6C545.2,325.4,546.3,325.7,547.8,325.7z"/>
	<polygon points="543.4,338.7 543.4,326.8 540.3,326.8 540.3,343.6 543.2,343.6 552.2,331.7 552.2,343.6 555.3,343.6 555.3,326.8 
		552.4,326.8 	"/>
	<polygon points="259.8,298.7 281.5,298.7 281.5,343.4 292.9,343.4 292.9,311.7 292.9,311.7 292.9,287.3 279.6,287.3 300,251.6 
		351.7,251.6 351.7,240.1 293.3,240.1 	"/>
	<polygon points="320.1,295.5 320.1,258.9 310.3,258.9 310.3,264.5 314.2,264.5 314.2,295.5 	"/>
	<path d="M337.5,291.2c0.6-1.4,0.9-2.8,0.9-4.6c0-2.2-0.6-4-1.5-5c-0.6-0.6-1.1-1.1-2.4-1.8c-0.9-0.5-2.1-0.9-3.4-1.5
		c-1-0.4-1.9-1-2.2-1.4c-0.3-0.4-0.6-1.3-0.6-2c0-0.6,0.3-1.5,0.8-2c0.5-0.5,1.3-0.8,2.2-0.8c1.7,0,3.2,0.7,4.7,2.1l1.4-5.2
		c-0.8-0.8-1.7-1.4-2.9-1.8c-1.2-0.4-2.3-0.6-3.5-0.6c-1.7,0-3.1,0.4-4.3,1.2c-1.2,0.8-2.2,1.9-2.8,3.3c-0.6,1.4-0.9,2.9-0.9,4.7
		c0,1.2,0.3,3,0.9,4.2c0.7,1.2,1.9,2.1,2.8,2.6c0.9,0.5,2.1,1,3.3,1.4c1,0.4,1.8,0.9,2.1,1.2c0.7,0.7,0.7,1.5,0.7,2.1
		c0,1.3-0.8,1.8-1.2,2.2c-0.4,0.3-1,0.5-2,0.5c-1,0-2-0.2-3-0.7c-1-0.5-1.9-1.1-2.6-1.9l-1.3,5.4c0.8,0.9,1.9,1.6,3.2,2.1
		c1.3,0.5,2.6,0.8,4,0.8c1.7,0,3.1-0.4,4.3-1.2C335.5,293.9,336.9,292.6,337.5,291.2z"/>
	<path d="M348.9,290.6c-0.5,0-1.2-0.5-1.5-1.1c-0.3-0.6-0.7-1.3-0.7-4.5v-11.5h3.7v-5.4h-3.7v-7.4H341v7.4h-2.4v5.4h2.4v11.6
		c0,3.6,0.6,6.3,1.7,8.1c1.1,1.8,2.8,2.7,4.9,2.7c0.8,0,1.5-0.1,2.2-0.4c0.7-0.3,1.3-0.7,1.7-1.2l-0.9-4.6
		C350.1,290.3,349.5,290.6,348.9,290.6z"/>
	<rect x="298" y="304.2" width="6" height="39.2"/>
	<polygon points="307.3,343.4 313.1,343.4 313.2,327 321.5,327 321.4,321.4 313.1,321.4 313.1,309.7 322.6,309.7 322.6,304.2 
		307.3,304.2 	"/>
	<polygon points="334.7,309.7 340.2,309.7 340.2,343.4 346,343.4 346,309.7 351.5,309.7 351.5,304.2 334.7,304.2 	"/>
	<rect x="325.6" y="304.2" width="6" height="39.2"/>
</g>
</svg>
