<svg xmlns="http://www.w3.org/2000/svg" viewBox="0 0 230.54 312.1"><title>medal</title><g id="Слой_2" data-name="Слой 2"><g id="Слой_1-2" data-name="Слой 1"><path d="M42.82,255.49c0-15.82,0-31.65,0-47.47a6.07,6.07,0,0,0-2.41-5.16c-23.58-20.2-37-45.84-39.94-76.7A115.18,115.18,0,0,1,228.56,95c6,33.54-1.59,63.79-22.22,90.94-5.23,6.88-10.25,13.74-17.66,18.5-.84.54-1,2.58-1,3.92q-.08,45.95,0,91.89a37.22,37.22,0,0,1-.21,5.75,7.09,7.09,0,0,1-10.86,5q-29.23-17.44-58.42-35a4.75,4.75,0,0,0-5.73,0c-18.57,11.18-37.23,22.23-55.86,33.31-5.2,3.1-7.69,2.93-11.9-1.4a7.3,7.3,0,0,1-1.73-4.64C42.78,287.37,42.82,271.43,42.82,255.49ZM115.13,202A87,87,0,0,0,202,115.43c.11-47.65-38.82-86.79-86.56-87S28.41,67.47,28.41,115.25,67.38,201.94,115.13,202Zm43.41,20.35c-29.05,11.54-57.79,11.42-86.54.06v43.06c1.25-.69,2.23-1.2,3.17-1.76,12.4-7.42,24.83-14.8,37.16-22.33,2.09-1.28,3.58-1.39,5.74-.07,12.32,7.55,24.75,14.92,37.15,22.34,1,.6,2,1.14,3.32,1.87Z"/></g></g></svg>