<svg xmlns="http://www.w3.org/2000/svg" viewBox="0 0 214.44 286.13"><title>rubl</title><g id="Слой_2" data-name="Слой 2"><g id="Слой_1-2" data-name="Слой 1"><path d="M27,250.26H10.14C3.27,250.24,0,247,0,240.19q0-16.34,0-32.69c0-6.69,3.24-9.94,9.92-10,5.56,0,11.12,0,16.86,0V178.34H10.21c-7.11,0-10.2-3.09-10.2-10.2q0-16.2,0-32.41c0-6.86,3.2-10,10.13-10H27c0-1.4,0-2.57,0-3.74q0-55.87,0-111.75c0-5.62,2-8.73,6.32-9.88A13,13,0,0,1,36.6,0c29.33,0,58.67-.07,88,0,44.45.11,81.19,31.27,88.62,75.05,8.13,47.9-25.75,94.87-73.71,102.05a116.53,116.53,0,0,1-15.85,1.15c-13.5.16-27,.05-40.51.05H79.92v19.17H132c7.51,0,10.42,2.94,10.42,10.52q0,16.2,0,32.41c0,6.54-3.24,9.8-9.75,9.81q-24.58,0-49.17,0H79.71c0,1.09,0,2.06,0,3,0,7.73,0,15.46,0,23.19,0,6.32-3.36,9.64-9.67,9.64q-16.76,0-33.52,0c-6.16,0-9.49-3.29-9.52-9.48C26.94,268,27,259.34,27,250.26Zm52.9-124.64c.59,0,1,.11,1.49.11,15,0,30,.23,44.95-.09a34.32,34.32,0,0,0,28.28-15c8.45-11.83,9.61-24.74,3.11-37.7-6.61-13.18-17.85-19.95-32.6-20.22-14.33-.26-28.66-.06-43-.05-.72,0-1.43.12-2.23.19Z"/></g></g></svg>