<svg xmlns="http://www.w3.org/2000/svg" viewBox="0 0 215.07 243.16"><title>shield</title><g id="Слой_2" data-name="Слой 2"><g id="Слой_1-2" data-name="Слой 1"><path d="M229.88,75.32C228.3,110.68,221,146.1,203.24,178.8c-17.35,31.93-42.6,55.18-76.51,68.76a10.93,10.93,0,0,1-8.69,0c-36.86-14.75-63-40.78-80.36-76.11-10.27-20.94-16.42-43.14-19.93-66.12a257.12,257.12,0,0,1-2.94-41.21c0-4.21,1.64-6.92,5.47-8.82Q69.2,31,118,6.43a9,9,0,0,1,8.79,0q49.13,24.65,98.32,49.17a7.8,7.8,0,0,1,4.77,7.54C229.87,66.71,229.88,70.27,229.88,75.32Zm-29,6.07c.43-4-1.29-6.62-4.85-8.39Q161.2,55.65,126.41,38.17a8.38,8.38,0,0,0-8.13.06Q83.5,55.72,48.65,73c-3.48,1.73-5.16,4.29-4.76,8.16.62,6.07,1.09,12.15,1.93,18.19,2.91,20.82,8.36,40.93,17.67,59.86,12.12,24.67,29.66,44.18,54.33,56.91a9.2,9.2,0,0,0,9.21,0,117.57,117.57,0,0,0,45.36-41.28C190.8,146.43,198.22,114.61,200.92,81.39Z" transform="translate(-14.81 -5.29)"/><path d="M186.16,86.64c-3.17,29.7-10.4,58.08-27.58,83.13A104.25,104.25,0,0,1,125.12,201a4.73,4.73,0,0,1-5.56-.08c-18-10.57-31.36-25.47-41.1-43.77-10.32-19.39-15.92-40.24-18.85-61.88-.42-3.06-.62-6.15-1-9.2a2.31,2.31,0,0,1,1.51-2.76q30.49-15.18,61-30.39a3.59,3.59,0,0,1,2.79,0c20.27,10.06,40.5,20.22,60.77,30.28C186.32,84,186.43,85.11,186.16,86.64Z" transform="translate(-14.81 -5.29)"/></g></g></svg>