<svg xmlns="http://www.w3.org/2000/svg" viewBox="0 0 311.47 268.98"><title>telegram</title><g id="Слой_2" data-name="Слой 2"><g id="Слой_1-2" data-name="Слой 1"><path d="M122.3,179.17c25.18-22.65,50.05-45,74.91-67.38Q229,83.21,260.65,54.56a23.91,23.91,0,0,0,4.7-5.85c1.3-2.31,0-4.33-2.59-3.83a24.73,24.73,0,0,0-8.37,3.18C230.65,63,207,78.07,183.31,93.11q-50.52,32.09-101,64.22a5.55,5.55,0,0,1-5.32.73c-21.26-7.24-42.56-14.37-63.84-21.55-4.41-1.49-8.35-3.72-11.07-7.61-3.06-4.37-2.77-8.77,1.26-12.23a30.45,30.45,0,0,1,8.48-5.17q126-49.54,252-98.9c8.48-3.32,16.86-6.93,25.45-9.91A48.08,48.08,0,0,1,302.84,0c6.09-.25,9.59,4.59,8.4,10.6q-18.32,92.33-36.66,184.65-5.91,29.78-11.76,59.58c-2.43,12.52-17.71,18.42-27.92,10.62q-45.41-34.7-90.76-69.46l-19.31-14.79C124,180.61,123.28,180,122.3,179.17Z"/></g></g></svg>