<svg xmlns="http://www.w3.org/2000/svg" viewBox="0 0 286.24 166.96"><title>vk</title><g id="Слой_2" data-name="Слой 2"><g id="Слой_1-2" data-name="Слой 1"><path d="M167.21,40.72c0,10,0,19.93,0,29.89a26.34,26.34,0,0,0,.45,5c1,4.88,4.38,6.88,8.55,4.27a54.59,54.59,0,0,0,11.52-9.56c13.3-14.78,23.16-31.86,31.94-49.59,2-4,3.82-8.07,5.65-12.14C227.85,3,232.06,0,238.21,0c11.36,0,22.72-.11,34.08.11,6.4.13,9.16,3.87,7.59,10a44.18,44.18,0,0,1-3.74,10.17c-5.19,9.55-10.41,19.12-16.2,28.32-6.69,10.62-14,20.86-21,31.26-.16.23-.32.46-.48.68-5.55,7.86-5.19,10.56,1.46,17.66,11.39,12.16,22.8,24.3,33.8,36.8a77.25,77.25,0,0,1,10.17,15.28c5.39,10.32,1.5,16.38-10.08,16.43-9.59,0-19.19-.18-28.77.08a19.8,19.8,0,0,1-15.5-6.35c-6.14-6.36-11.92-13.09-18.33-19.18-6.93-6.59-14.23-12.83-21.7-18.8-4.36-3.48-9.39-6-15.37-5.69-4.18.25-5.86,1.63-6.41,5.83a54.18,54.18,0,0,0-.49,6.68c0,8.38,0,16.76,0,25.14,0,7.1-2,9.74-9,11.19a72.24,72.24,0,0,1-26.39.1c-29.37-4.81-53-20-71.86-42.24-24.36-28.86-43.29-61.13-55.72-97A111.27,111.27,0,0,1,.31,11.21C-1.06,4.12,2.14.21,9.37.1,20.64-.06,31.9.05,43.17.05a11.12,11.12,0,0,1,11,7.17c2.27,5.29,4.17,10.74,6.33,16.08,7.86,19.46,17.16,38.17,29.66,55.13a110.06,110.06,0,0,0,8.53,10,25.17,25.17,0,0,0,5.45,4.31c4.91,2.91,8.48,1.08,9.29-4.58a9.88,9.88,0,0,0,.1-1.39c0-17.22.17-34.45-.06-51.67A30.64,30.64,0,0,0,106,15.6a41.85,41.85,0,0,1-3.37-4.45C99.58,6.26,102.37.71,108.13.09A15.74,15.74,0,0,1,109.81,0C125.92,0,142,0,158.13,0c6.17,0,8.87,2.55,9,8.85.16,10.61,0,21.23,0,31.84Z"/></g></g></svg>