<svg xmlns="http://www.w3.org/2000/svg" viewBox="0 0 246.35 246.36"><title>whatsapp</title><g id="Слой_2" data-name="Слой 2"><g id="Слой_1-2" data-name="Слой 1"><path d="M120.31,240.18c-14.19-.12-32.39-4.23-49.48-12.93a6.84,6.84,0,0,0-5.67-.44q-29.71,9.57-59.48,19c-1.62.52-3.23,1.1-4.72-.35s-.85-3.23-.28-4.91c6.4-18.87,12.76-37.76,19.24-56.61a6.43,6.43,0,0,0-.47-5.83C8.72,158.91,3.28,138.22,4.5,116.31,7.19,68.11,30.74,33.2,73.76,11.61c17.88-9,37.17-12.29,57.13-11.5C184.84,2.24,231.52,41.17,243.45,94a119.88,119.88,0,0,1-62.24,132.67C163.33,235.75,144.71,240.26,120.31,240.18Zm-82.39-31c1.1-.3,1.85-.47,2.59-.71,9.16-2.9,18.33-5.74,27.45-8.75a6.77,6.77,0,0,1,6.32.76,95.91,95.91,0,0,0,89.33,6.78,94.35,94.35,0,0,0,40.32-32.83A94.67,94.67,0,0,0,170.24,36.21a96,96,0,0,0-99,5.58A94,94,0,0,0,34.7,89.44a92.65,92.65,0,0,0-2.19,54.19,89.7,89.7,0,0,0,14.15,30.55,6.47,6.47,0,0,1,.85,6.73c-1,2.53-1.81,5.13-2.68,7.71C42.56,195.35,40.3,202.08,37.92,209.15Z"/><path d="M158.28,177.83c-6.75,0-13.43-1.94-20.11-4-26.76-8.05-45.71-25.94-61.24-48.26-5.45-7.83-10.26-16-11.65-25.54-1.6-11,.27-21.22,7.93-29.83,3.32-3.74,7.89-4.72,12.45-5.63A39.89,39.89,0,0,1,93,63.88a6.82,6.82,0,0,1,6.38,4.39Q105,80.66,110.09,93.21c1.53,3.72-.37,6.93-2.39,9.84-1.73,2.49-3.91,4.67-5.74,7.09a2.71,2.71,0,0,0-.4,2.39c9.69,13.79,21.38,25.29,37.11,32.15,1.82.8,2.85.49,4-1,2.57-3.38,5.32-6.62,8-9.92s5.17-4.09,9.14-2.58c3.58,1.36,7.06,3,10.52,4.69,4.77,2.27,9.48,4.66,14.23,7,2.57,1.26,3.67,3.3,3.81,6.15.89,18.12-13.7,27.33-26.65,28.66C160.68,177.73,159.64,177.75,158.28,177.83Z"/></g></g></svg>