<svg xmlns="http://www.w3.org/2000/svg" viewBox="0 0 269.34 188.97"><title>youtube</title><g id="Слой_2" data-name="Слой 2"><g id="Слой_1-2" data-name="Слой 1"><path d="M134.15,0c27.64,1.08,55.28,2.06,82.92,3.32a144,144,0,0,1,19.46,2.34C252.08,8.51,262,19,265,35.27c4.07,22.55,4.88,45.35,4.13,68.16-.53,15.94-2.07,31.87-3.6,47.76-1.13,11.74-5.85,21.74-16.23,28.39-6.27,4-13.35,5.17-20.52,5.92-27.83,2.93-55.79,3.59-83.73,3.45s-56.06-1-84.08-1.89a238.81,238.81,0,0,1-27.3-2.79C18.34,182,7.5,171.57,4.86,155.79c-2-12-3.14-24.26-4-36.45a388.84,388.84,0,0,1,.6-59.11A220.7,220.7,0,0,1,5.14,32.77c3.39-16.14,14.69-25.85,31-27.89C63.28,1.5,90.58,1.28,117.87.83c5.42-.09,10.84,0,16.26,0ZM108,135.18,178,94.9,108,54.62Z"/></g></g></svg>